<svg xmlns="http://www.w3.org/2000/svg"
     viewBox="0 0 32 32"
     fill="currentColor">
  <path d="M16.02 3C9.39 3 4 8.39 4 15.02c0 2.65.87 5.11 2.35 7.12L4 29l7.07-2.3a11.9 11.9 0 0 0 4.95 1.05h.01c6.63 0 12.02-5.39 12.02-12.02C28.05 8.39 22.65 3 16.02 3zm0 21.74h-.01a9.7 9.7 0 0 1-4.63-1.17l-.33-.19-4.2 1.37 1.4-4.09-.21-.34a9.73 9.73 0 1 1 8.0 4.41zm5.35-7.29c-.29-.15-1.7-.84-1.96-.93-.26-.1-.45-.15-.64.15-.19.29-.73.93-.9 1.12-.16.19-.32.22-.61.07-.29-.15-1.22-.45-2.32-1.43-.86-.77-1.44-1.72-1.6-2.01-.17-.29-.02-.45.13-.6.13-.13.29-.32.45-.48.15-.16.19-.26.29-.45.1-.19.05-.35-.02-.5-.07-.15-.64-1.55-.88-2.13-.23-.55-.47-.48-.64-.49l-.55-.01c-.19 0-.5.07-.77.35-.26.29-1 1-.99 2.44.01 1.44 1.05 2.83 1.2 3.03.15.19 2.07 3.16 5.02 4.43.7.3 1.24.48 1.66.61.7.22 1.33.19 1.83.12.56-.08 1.7-.69 1.94-1.36.24-.67.24-1.25.17-1.36-.07-.11-.26-.18-.55-.33z"/>
</svg>
